HIERARCHY
ROOT Hips
{
	OFFSET 0.00000 0.00000 0.00000
	CHANNELS 6 Xposition Yposition Zposition Yrotation Zrotation Xrotation 
	JOINT Lumbar
	{
		OFFSET 0 0 0
		CHANNELS 3 Zrotation Xrotation Yrotation
		JOINT Neck
		{
			OFFSET 0.00 0.2701 0.00
			CHANNELS 3 Zrotation Xrotation Yrotation
			End Site
			{
				OFFSET 0.00 0.1379 0.00
			}
		}
		JOINT RightShoulder
		{
			OFFSET 0.0119 0.2289 0.1181
			CHANNELS 3 Zrotation Xrotation Yrotation
			JOINT RightElbow
			{
				OFFSET 0.00 -0.1475 0.00
				CHANNELS 2 Zrotation Yrotation
				JOINT RightWrist
				{
					OFFSET 0.00 -0.1605 0.00
					CHANNELS 2 Zrotation Xrotation
					End Site
					{
						OFFSET 0.0040 -0.1068 0.0006
					}
				}
			}
		}
		JOINT LeftShoulder
		{
			OFFSET 0.0119 0.2289 -0.1181
			CHANNELS 3 Zrotation Xrotation Yrotation
			JOINT LeftElbow
			{
				OFFSET 0.00 -0.1475 0.00
				CHANNELS 2 Zrotation Yrotation
				JOINT LeftWrist
				{
					OFFSET 0.00 -0.1605 0.00
					CHANNELS 2 Zrotation Xrotation
					End Site
					{
						OFFSET 0.0040 -0.1068 -0.0006
					}
				}
			}
		}
	}
	JOINT RightHip
	{
		OFFSET 0.0316 -0.0424 0.0458
		CHANNELS 3 Zrotation Xrotation Yrotation
		JOINT RightKnee
		{
			OFFSET 0.00 -0.2438 0.00
			CHANNELS 1 Zrotation
			JOINT RightAnkle
			{
				OFFSET 0.00 -0.2449 0.00
				CHANNELS 3 Zrotation Xrotation Yrotation
				End Site
				{
					OFFSET 0.1237 -0.0542 0.0051
				}
			}
		}
	}
	JOINT LeftHip
	{
		OFFSET 0.0316 -0.0424 -0.0458
		CHANNELS 3 Zrotation Xrotation Yrotation
		JOINT LeftKnee
		{
			OFFSET 0.00 -0.2438 0.00
			CHANNELS 1 Zrotation
			JOINT LeftAnkle
			{
				OFFSET 0.00 -0.2449 0.00
				CHANNELS 3 Zrotation Xrotation Yrotation
				End Site
				{
					OFFSET 0.1237 -0.0542 -0.0051
				}
			}
		}
	}
}
MOTION
Frames: 27
Frame Time: 0.02
0.84337 -0.01319 0.64973 -154.67209 -73.77351 -2.95861 -7.26083 1.62924 1.94867 6.99546 -16.77812 -2.11994 81.43964 -22.02983 -1.74324 8.84884 90.24053 -5.00935 -17.144 96.94332 28.94476 21.75023 5.81288 -75.93704 0.26939 9.2262 108.11363 -15.74529 -6.24338 -42.68497 -8.9302 -1.78268 -3.21508 115.7964 1.04162 7.56306 -50.02556 -8.78031 3.66397 4.1307
0.84361 -0.01417 0.65007 -156.0447 -74.2451 -4.27346 -7.64786 1.75313 1.49348 7.95871 -17.3691 -2.11994 82.52399 -20.8212 -2.67893 8.6793 89.15808 -4.02368 -16.86218 99.02846 30.1791 33.98442 5.76884 -76.06695 1.36954 8.07046 108.93627 -15.67749 -6.57662 -43.22684 -8.89327 -1.75749 -3.20108 116.7822 0.89331 6.62478 -50.72194 -7.54889 4.87648 4.65933
0.84393 -0.01531 0.65031 -157.62904 -74.7868 -5.81236 -8.01134 1.88434 1.02872 9.02008 -17.85757 -2.11994 83.62739 -19.55031 -3.39997 8.57418 88.25903 -3.08339 -16.316 101.32289 31.42895 46.89901 5.79456 -77.55033 1.9869 6.56535 109.89302 -15.61095 -6.98624 -43.85389 -8.8524 -1.72415 -3.18306 117.92397 0.6362 5.36404 -51.48948 -6.00769 6.42202 5.33499
0.8442 -0.01638 0.65058 -159.12233 -75.28926 -7.25521 -8.38878 2.01205 0.5753 10.02593 -18.38961 -2.11994 84.71561 -18.30953 -4.2039 8.4414 87.11894 -2.10152 -15.89025 103.48688 32.64198 59.174 5.7955 -78.35551 2.80863 5.27292 110.78133 -15.54674 -7.36733 -44.44278 -8.81337 -1.69386 -3.16649 118.98486 0.42174 4.24152 -52.22274 -4.6625 7.77883 5.92891
0.84452 -0.01745 0.65089 -160.61284 -75.82394 -8.69175 -8.75654 2.14073 0.08796 11.08456 -18.93904 -2.11994 85.84004 -17.04977 -5.08376 8.29989 86.60183 -1.19432 -15.46421 105.80953 33.99561 72.97476 5.77287 -79.39154 3.71738 3.75023 111.70454 -15.46813 -7.72833 -45.03153 -8.77414 -1.66588 -3.15127 120.09248 0.23744 3.14764 -52.96814 -3.08538 9.29497 6.58642
0.84477 -0.01855 0.65112 -162.14117 -76.30712 -10.1765 -9.13631 2.26866 -0.32758 12.05205 -19.42636 -2.11994 86.88824 -15.82198 -5.74914 8.19257 84.86921 -0.15233 -14.97757 107.84036 35.0474 83.65972 5.81268 -80.28559 4.31779 2.62489 112.58433 -15.42144 -8.14428 -45.63912 -8.73444 -1.63151 -3.13248 121.13569 -0.03477 1.92625 -53.70173 -1.91535 10.55701 7.14587
0.84482 -0.0197 0.6512 -163.85552 -76.63798 -11.87655 -9.56666 2.39744 -0.5626 12.76656 -19.76201 -2.11994 87.7439 -14.66333 -5.87421 8.16487 79.46065 1.33026 -14.3643 109.10343 35.34573 86.18498 6.02518 -80.41612 4.2248 2.68633 113.32653 -15.45178 -8.72508 -46.28746 -8.69382 -1.57953 -3.10358 121.99102 -0.53815 0.35752 -54.40797 -1.97104 11.04301 7.40093
0.8448 -0.02087 0.65121 -165.57366 -76.91276 -13.59011 -10.00684 2.52437 -0.72008 13.38015 -20.03749 -2.11994 88.51577 -13.54735 -5.78916 8.16978 72.87553 2.93798 -13.70318 110.04752 35.32203 85.43231 6.29721 -80.37295 3.82692 3.15935 114.01656 -15.51581 -9.35076 -46.94927 -8.65296 -1.52195 -3.07152 122.76977 -1.12297 -1.31268 -55.09478 -2.44352 11.25897 7.55095
0.84481 -0.02201 0.65124 -167.20309 -77.20915 -15.20812 -10.43506 2.64905 -0.90062 14.02563 -20.34515 -2.11994 89.31189 -12.43454 -5.7984 8.159 67.01256 4.44987 -13.07927 111.08057 35.39122 85.76185 6.52619 -80.43522 3.54088 3.44173 114.72132 -15.57244 -9.93648 -47.59916 -8.61256 -1.46807 -3.04162 123.56595 -1.66222 -2.89038 -55.77612 -2.70699 11.59561 7.74853
0.84486 -0.02326 0.65132 -169.2119 -77.52629 -17.21545 -10.89608 2.787 -1.13649 14.73749 -20.63499 -2.11994 90.17242 -11.22095 -5.80458 8.15277 60.36718 6.12559 -12.38099 112.36256 35.69131 87.81264 6.81302 -80.41618 3.35519 3.72714 115.47192 -15.59815 -10.61347 -48.27886 -8.57053 -1.40842 -3.00824 124.44449 -2.24508 -4.68323 -56.52284 -3.03784 11.95831 7.9553
0.84479 -0.02429 0.65129 -170.42287 -77.78355 -18.40723 -11.289 2.89684 -1.23414 15.28095 -20.94135 -2.11994 90.87203 -10.23228 -5.77112 8.14566 55.06604 7.48939 -11.82959 113.04106 35.42809 85.52101 7.00788 -80.52788 2.88926 4.10843 116.10885 -15.69317 -11.10258 -48.89562 -8.53193 -1.36033 -2.98176 125.12683 -2.75038 -6.03773 -57.12472 -3.33704 12.191 8.11189
0.84443 -0.02478 0.651 -169.47981 -77.90917 -17.38625 -11.51176 2.92888 -1.00806 15.42523 -21.37399 -2.11994 91.20359 -9.81896 -5.67001 8.11325 53.80219 7.96728 -11.69776 112.18547 33.73848 71.78373 6.80046 -80.85952 1.7712 4.65636 116.47767 -15.99922 -11.12896 -49.35945 -8.50248 -1.33865 -2.97189 125.3229 -3.06232 -6.24502 -57.35782 -3.39836 12.19336 8.19183
0.84394 -0.02504 0.6506 -167.72525 -77.97214 -15.53686 -11.66192 2.93282 -0.63921 15.39551 -21.81378 -2.11994 91.36547 -9.63633 -5.53887 8.08115 53.92726 8.12483 -11.71647 110.72269 31.48559 53.844 6.52161 -81.35205 0.37725 5.28759 116.72649 -16.36964 -10.95468 -49.75423 -8.47658 -1.32986 -2.96955 125.31643 -3.28616 -5.99193 -57.44078 -3.42298 12.06244 8.21825
0.84348 -0.02537 0.65025 -166.30584 -78.05063 -14.0352 -11.83215 2.94997 -0.30889 15.41777 -22.20721 -2.11994 91.56844 -9.37303 -5.42914 8.05856 53.38671 8.4268 -11.66589 109.5008 29.45495 37.9799 6.36462 -81.88993 -0.92153 5.88115 117.00862 -16.69107 -10.82427 -50.16467 -8.44933 -1.32006 -2.96606 125.37788 -3.52196 -5.88729 -57.57447 -3.4991 11.94778 8.24359
0.84312 -0.02585 0.64993 -165.0206 -78.18287 -12.64757 -12.05743 2.96507 -0.08315 15.55025 -22.77941 -2.11994 91.92095 -9.0138 -5.28016 7.99703 52.93674 8.74288 -11.61648 108.41453 27.54729 21.25966 5.83821 -81.9398 -2.11217 6.48926 117.38089 -17.09301 -10.8835 -50.64314 -8.42098 -1.29067 -2.9534 125.53893 -3.87557 -6.03337 -57.78041 -3.44692 12.00439 8.36906
0.84253 -0.02596 0.6495 -163.2733 -78.18779 -10.83548 -12.15048 2.97793 0.38833 15.41405 -22.98312 -2.11994 91.92231 -8.90275 -5.20734 8.01547 52.66056 8.94578 -11.6019 106.90745 25.26425 5.4203 6.05611 -83.02465 -3.57893 7.08 117.53473 -17.34714 -10.51424 -50.96192 -8.39572 -1.30384 -2.961 125.44502 -3.96636 -5.55859 -57.80174 -3.64238 11.68438 8.27904
0.84133 -0.0251 0.64882 -160.36295 -77.86697 -7.96947 -11.89808 2.98998 1.54542 14.57066 -22.15731 -2.11994 91.00036 -9.46993 -5.36525 8.26017 52.37444 8.96915 -11.63943 104.3758 21.9989 -7.40208 8.40742 -87.11405 -5.82979 7.6137 117.13953 -17.13239 -8.88165 -50.86895 -8.37868 -1.44359 -3.02861 124.70123 -3.31262 -3.37852 -57.34056 -4.57668 10.28586 7.56897
0.83991 -0.02386 0.64804 -157.03327 -77.41861 -4.72189 -11.51496 3.00076 2.9362 13.46485 -20.9636 -2.11994 89.73099 -10.26876 -5.60037 8.58351 52.24364 8.88115 -11.70802 101.44754 18.39531 -19.09634 11.49655 -92.20526 -8.33099 8.12272 116.52473 -16.77382 -6.84727 -50.61572 -8.36455 -1.62361 -3.11531 123.70849 -2.40427 -0.60935 -56.70199 -5.75113 8.52723 6.65135
0.83859 -0.0228 0.64731 -153.94959 -77.02185 -1.70263 -11.19011 3.01345 4.19266 12.48477 -19.94416 -2.11994 88.61714 -10.92984 -5.79154 8.86781 52.15314 8.80477 -11.76794 98.70691 14.99938 -30.99622 14.21047 -96.71683 -10.65721 8.63384 115.9939 -16.51183 -5.08313 -50.42719 -8.34871 -1.77708 -3.18932 122.82564 -1.6389 1.82418 -56.14921 -6.78296 6.98181 5.85444
0.83726 -0.02173 0.64658 -150.59657 -76.64923 1.58281 -10.86654 3.02064 5.57476 11.47116 -18.89116 -2.11994 87.50482 -11.73902 -6.01531 9.16857 51.66513 8.87249 -11.81181 95.90443 11.34412 -44.33013 17.09892 -101.7598 -13.25077 9.18738 115.5238 -16.12477 -2.94774 -50.26882 -8.33455 -1.96532 -3.28028 121.94472 -0.75653 4.56489 -55.56376 -7.95377 5.22352 4.94481
0.83591 -0.02058 0.64581 -147.72431 -76.19748 4.38681 -10.51146 3.03798 6.74643 10.46746 -17.82551 -2.11994 86.31215 -12.28804 -6.19447 9.45058 51.99528 8.62961 -11.89235 93.15618 8.17079 -54.36799 19.7893 -105.93069 -15.34447 9.64458 114.87897 -15.95759 -1.48562 -50.01266 -8.31762 -2.09117 -3.34069 121.00915 -0.05708 6.79413 -55.01316 -8.89425 3.82339 4.2206
0.83453 -0.01924 0.64493 -146.21085 -75.55415 5.82263 -10.09138 3.09572 7.29912 9.55669 -16.77284 -2.11994 84.95725 -12.09306 -6.18943 9.68895 54.79293 7.4538 -12.08535 90.56128 6.28662 -55.42607 21.84061 -107.45186 -15.98207 9.84883 113.78665 -16.48127 -2.04365 -49.50735 -8.29154 -2.02931 -3.3094 119.93376 0.06273 7.51335 -54.53956 -9.12377 3.51454 4.06632
0.83315 -0.01784 0.64402 -145.21272 -74.83718 6.74661 -9.64659 3.16174 7.62754 8.6665 -15.72801 -2.11994 83.53958 -11.62192 -6.14224 9.90109 58.35878 5.98854 -12.31031 88.05718 4.92399 -53.20886 23.6486 -108.05622 -16.1077 9.95488 112.53084 -17.22212 -3.28233 -48.91309 -8.26273 -1.90424 -3.24718 118.82178 -0.00824 7.6874 -54.11704 -9.11554 3.57677 4.10477
0.83179 -0.01649 0.64313 -144.03 -74.15649 7.86469 -9.21973 3.21603 8.04543 7.76573 -14.70709 -2.11994 82.16749 -11.25485 -6.1455 10.10668 61.4007 4.72648 -12.50711 85.57336 3.40854 -52.57635 25.51335 -109.08116 -16.47784 10.10127 111.36186 -17.83105 -4.16938 -48.37166 -8.23567 -1.8117 -3.20087 117.76093 0.01546 8.07708 -53.71627 -9.22793 3.46039 4.05052
0.83033 -0.01501 0.6422 -142.62422 -73.45752 9.15838 -8.75898 3.30338 8.52464 6.85715 -13.55713 -2.11994 80.70909 -10.98386 -6.03016 10.39105 65.17456 3.16376 -12.76113 82.80726 1.53044 -51.5191 27.64071 -110.13736 -16.81336 10.26639 110.12938 -18.57405 -5.22125 -47.77144 -8.2065 -1.70452 -3.14742 116.54776 0.01352 8.61953 -53.12998 -9.29898 3.37292 4.01046
0.82908 -0.01381 0.64135 -141.80906 -72.7832 9.96072 -8.36592 3.32453 8.81918 5.97784 -12.68289 -2.11994 79.42273 -10.44742 -6.13722 10.50649 67.6197 2.15254 -12.90506 80.66622 0.52978 -50.56013 29.14153 -110.88162 -17.08799 10.36771 108.99681 -19.09279 -6.09628 -47.2756 -8.18109 -1.61226 -3.10122 115.64373 0.01754 8.71127 -52.93127 -9.39231 3.31875 3.98948
0.82835 -0.01334 0.64066 -142.52012 -72.17617 9.51763 -8.15547 3.15577 8.66095 5.13714 -12.56837 -2.11994 78.60572 -9.21465 -6.98378 10.14425 66.07846 2.79873 -12.71716 80.14469 1.88247 -50.83443 29.07578 -111.1183 -17.38242 10.33159 108.15166 -18.92644 -6.32281 -47.08228 -8.16641 -1.57685 -3.08266 115.62854 0.07296 7.64838 -53.90673 -9.64175 3.2618 3.97403
